ply
format ascii 1.0
comment created by MATLAB plywrite
element vertex 102
property double x
property double y
property double z
element face 200
property list uchar char vertex_indices
end_header
2.00800774449666e+01 1.92250041911510e+00 -1.26832272860303e+02 
-9.51339570178550e+00 3.92300531046203e+01 -1.22886267238130e+02 
8.49751925058251e+00 -4.01311371984416e+01 -1.22927918200891e+02 
-4.12985238629460e+01 1.11241388812371e+01 -1.22516896169086e+02 
3.47942564683026e+01 3.78577329316677e+01 -1.18299347067122e+02 
4.88125853490214e+01 -1.79906087877242e+01 -1.17728411454977e+02 
-3.57942564683026e+01 -3.88577329316677e+01 -1.18299347067122e+02 
3.08082082088631e+01 7.86996260988158e+01 -9.63867191457762e+01 
6.45836761268265e+01 3.62203672679211e+01 -1.03570239986417e+02 
8.40264640440646e+01 -2.14181773053076e+00 -9.60101564409692e+01 
7.43716714866309e+01 -4.69147902180865e+01 -9.36236978518050e+01 
2.93965999529664e+01 -7.97692923752106e+01 -9.74878179385341e+01 
-3.18082082088631e+01 -7.96996260988158e+01 -9.63867191457757e+01 
-6.55836761268256e+01 -3.72203672679211e+01 -1.03570239986418e+02 
-8.50264640440641e+01 1.14181773053065e+00 -9.60101564409692e+01 
-7.53716714866314e+01 4.59147902180865e+01 -9.36236978518041e+01 
-3.03965999529667e+01 7.87692923752102e+01 -9.74878179385346e+01 
7.07161881303388e+01 7.42659603725367e+01 -7.60813732514916e+01 
9.14894847082849e+01 4.46356978142127e+01 -7.67975248900939e+01 
1.03935703439164e+01 -1.03241165331064e+02 -7.56785295477034e+01 
-7.17161881303388e+01 -7.52659603725369e+01 -7.60813732514916e+01 
-9.24894847082849e+01 -4.56356978142121e+01 -7.67975248900943e+01 
-1.13935703439161e+01 1.02241165331064e+02 -7.56785295477043e+01 
3.59190082480852e+01 1.12272302020248e+02 -5.03236720785512e+01 
1.07719114059025e+02 2.01215492299098e+01 -6.46471964131797e+01 
1.07696226078634e+02 -2.21786169271239e+01 -6.41851523697155e+01 
1.04867151943913e+02 -5.34223932047361e+01 -5.03514004872509e+01 
7.80150062503842e+01 -8.69522122797658e+01 -5.24242427341155e+01 
4.71322993990716e+01 -1.08278279965844e+02 -5.02015633246499e+01 
-3.69190082480849e+01 -1.13272302020249e+02 -5.03236720785510e+01 
-1.08719114059025e+02 -2.11215492299098e+01 -6.46471964131806e+01 
-1.08696226078634e+02 2.11786169271240e+01 -6.41851523697151e+01 
-1.05867151943914e+02 5.24223932047348e+01 -5.03514004872509e+01 
-7.90150062503847e+01 8.59522122797653e+01 -5.24242427341160e+01 
-4.81322993990718e+01 1.07278279965843e+02 -5.02015633246504e+01 
7.92417787357073e+01 9.57305077138951e+01 -2.82644600277290e+01 
1.09819306610052e+02 5.03851234667854e+01 -3.94876509931050e+01 
1.24729958820447e+02 -9.67703787791805e-01 -2.97355375354621e+01 
1.35271906703929e+01 -1.25403263772494e+02 -2.76188331370413e+01 
-8.02417787357076e+01 -9.67305077138952e+01 -2.82644600277290e+01 
-1.10819306610052e+02 -5.13851234667859e+01 -3.94876509931046e+01 
-1.25729958820447e+02 -3.22962122081094e-02 -2.97355375354623e+01 
-1.45271906703930e+01 1.24403263772494e+02 -2.76188331370417e+01 
3.87359278088315e+01 1.20281898052864e+02 -1.48267960803335e+01 
1.03613608541316e+02 7.19669280528209e+01 -1.49510096394847e+01 
1.18571138369409e+02 4.87864512280718e+01 2.07371394413772e+00 
1.18571138369409e+02 -4.97864512280720e+01 -3.07371394413792e+00 
7.33479618050635e+01 -1.05449014062882e+02 -1.35053948717878e+01 
-3.97359278088310e+01 -1.21281898052864e+02 -1.48267960803328e+01 
-1.04613608541317e+02 -7.29669280528195e+01 -1.49510096394849e+01 
-1.19571138369409e+02 -4.97864512280723e+01 2.07371394413781e+00 
-1.19571138369409e+02 4.87864512280719e+01 -3.07371394413784e+00 
-7.43479618050637e+01 1.04449014062882e+02 -1.35053948717878e+01 
3.93612564305703e+01 1.20084424288971e+02 1.35416814853979e+01 
8.14978680420484e+01 9.65396726442225e+01 1.36935588892911e+01 
1.24729958820447e+02 -3.22962122081378e-02 2.87355375354623e+01 
1.03613608541317e+02 -7.29669280528200e+01 1.39510096394856e+01 
7.92417787357077e+01 -9.67305077138943e+01 2.72644600277288e+01 
4.23473191173062e+01 -1.19033410775175e+02 2.48090587119884e+01 
1.09456803594900e+01 -1.24748706402291e+02 2.95245052535668e+01 
-4.03612564305705e+01 -1.21084424288971e+02 1.35416814853977e+01 
-8.24978680420472e+01 -9.75396726442231e+01 1.36935588892916e+01 
-1.25729958820447e+02 -9.67703787791891e-01 2.87355375354625e+01 
-1.04613608541317e+02 7.19669280528202e+01 1.39510096394856e+01 
-8.02417787357071e+01 9.57305077138945e+01 2.72644600277292e+01 
-4.33473191173067e+01 1.18033410775175e+02 2.48090587119883e+01 
-1.19456803594900e+01 1.23748706402291e+02 2.95245052535663e+01 
3.58319711152827e+01 1.12343604093486e+02 4.93405237414925e+01 
7.80150062503841e+01 8.59522122797659e+01 5.14242427341164e+01 
1.04867151943913e+02 5.24223932047358e+01 4.93514004872509e+01 
1.09819306610052e+02 -5.13851234667850e+01 3.84876509931046e+01 
-3.68319711152825e+01 -1.13343604093486e+02 4.93405237414929e+01 
-7.90150062503849e+01 -8.69522122797656e+01 5.14242427341160e+01 
-1.05867151943913e+02 -5.34223932047358e+01 4.93514004872504e+01 
-1.10819306610052e+02 5.03851234667852e+01 3.84876509931055e+01 
1.07696226078634e+02 2.11786169271240e+01 6.31851523697155e+01 
1.07719114059025e+02 -2.11215492299100e+01 6.36471964131802e+01 
9.14894847082840e+01 -4.56356978142133e+01 7.57975248900948e+01 
7.07161881303397e+01 -7.52659603725356e+01 7.50813732514921e+01 
4.21256809217435e+01 -9.48330583229822e+01 7.39498026953470e+01 
1.22446051870486e+01 -1.03317242471304e+02 7.43538560576631e+01 
-1.08696226078634e+02 -2.21786169271242e+01 6.31851523697151e+01 
-1.08719114059026e+02 2.01215492299098e+01 6.36471964131797e+01 
-9.24894847082842e+01 4.46356978142132e+01 7.57975248900948e+01 
-7.17161881303389e+01 7.42659603725363e+01 7.50813732514921e+01 
-4.31256809217451e+01 9.38330583229804e+01 7.39498026953474e+01 
-1.32446051870481e+01 1.02317242471305e+02 7.43538560576626e+01 
3.27395809908835e+01 8.03318408694333e+01 9.35622523724319e+01 
8.01771493956276e+01 4.92007658213561e+01 8.52989648841130e+01 
8.40264640440651e+01 1.14181773053076e+00 9.50101564409692e+01 
-3.37395809908837e+01 -8.13318408694331e+01 9.35622523724323e+01 
-7.53716714866327e+01 -4.69147902180863e+01 9.26236978518036e+01 
-8.50264640440655e+01 -2.14181773053087e+00 9.50101564409692e+01 
5.41928879846560e+01 2.65417183675490e+01 1.13176186566560e+02 
5.37778442756639e+01 -3.15710149581873e+01 1.11606189612657e+02 
2.13037217532392e+01 -6.28769694815646e+01 1.09945974537028e+02 
-5.47778442756637e+01 3.05710149581871e+01 1.11606189612657e+02 
-2.23037217532392e+01 6.18769694815651e+01 1.09945974537027e+02 
2.75679611238920e+01 4.38136955165014e+01 1.16762836654101e+02 
-1.74328006073418e+01 -3.89942429574032e+01 1.21817654006340e+02 
-4.28271402819282e+01 -3.04248426175127e+00 1.20942777356763e+02 
1.05706708992924e+01 1.03252803434204e+01 1.27798858736430e+02 
3 0 2 3 
3 0 3 1 
3 1 4 0 
3 5 0 4 
3 0 5 2 
3 2 6 3 
3 8 4 7 
3 4 9 5 
3 9 4 8 
3 10 5 9 
3 5 11 2 
3 11 5 10 
3 2 12 6 
3 12 2 11 
3 13 6 12 
3 6 14 3 
3 14 6 13 
3 15 3 14 
3 3 16 1 
3 16 3 15 
3 1 7 4 
3 7 1 16 
3 7 17 8 
3 18 8 17 
3 9 8 18 
3 12 11 19 
3 12 20 13 
3 21 13 20 
3 14 13 21 
3 7 16 22 
3 17 7 23 
3 18 24 9 
3 25 9 24 
3 9 25 10 
3 26 10 25 
3 27 10 26 
3 10 27 11 
3 28 11 27 
3 19 11 28 
3 19 29 12 
3 20 12 29 
3 21 30 14 
3 31 14 30 
3 14 31 15 
3 32 15 31 
3 33 15 32 
3 15 33 16 
3 34 16 33 
3 22 16 34 
3 22 23 7 
3 23 35 17 
3 17 36 18 
3 36 17 35 
3 18 36 24 
3 37 24 36 
3 24 37 25 
3 26 25 37 
3 28 38 19 
3 29 19 38 
3 29 39 20 
3 20 40 21 
3 40 20 39 
3 21 40 30 
3 41 30 40 
3 30 41 31 
3 32 31 41 
3 34 42 22 
3 23 22 42 
3 35 23 43 
3 35 44 36 
3 45 36 44 
3 37 36 45 
3 37 46 26 
3 26 47 27 
3 47 26 46 
3 27 47 28 
3 38 28 47 
3 38 48 29 
3 39 29 48 
3 39 49 40 
3 50 40 49 
3 41 40 50 
3 41 51 32 
3 32 52 33 
3 52 32 51 
3 33 52 34 
3 42 34 52 
3 42 43 23 
3 43 54 35 
3 54 43 53 
3 35 54 44 
3 45 44 54 
3 45 55 37 
3 46 37 55 
3 46 56 47 
3 57 47 56 
3 58 47 57 
3 47 58 38 
3 59 38 58 
3 38 60 48 
3 60 38 59 
3 48 61 39 
3 61 48 60 
3 39 61 49 
3 50 49 61 
3 50 62 41 
3 51 41 62 
3 51 63 52 
3 64 52 63 
3 65 52 64 
3 52 65 42 
3 66 42 65 
3 42 53 43 
3 53 42 66 
3 53 68 54 
3 68 53 67 
3 54 69 45 
3 69 54 68 
3 55 45 69 
3 55 70 46 
3 46 70 56 
3 57 56 70 
3 59 71 60 
3 60 72 61 
3 72 60 71 
3 61 73 50 
3 73 61 72 
3 62 50 73 
3 62 74 51 
3 51 74 63 
3 64 63 74 
3 66 67 53 
3 69 75 55 
3 76 55 75 
3 55 76 70 
3 77 70 76 
3 70 78 57 
3 78 70 77 
3 57 79 58 
3 79 57 78 
3 58 80 59 
3 80 58 79 
3 71 59 80 
3 73 81 62 
3 82 62 81 
3 62 82 74 
3 83 74 82 
3 74 84 64 
3 84 74 83 
3 64 85 65 
3 85 64 84 
3 65 86 66 
3 86 65 85 
3 67 66 86 
3 67 87 68 
3 88 68 87 
3 68 88 69 
3 69 88 75 
3 89 75 88 
3 75 89 76 
3 77 76 89 
3 80 90 71 
3 71 90 72 
3 91 72 90 
3 72 91 73 
3 73 91 81 
3 92 81 91 
3 81 92 82 
3 83 82 92 
3 86 87 67 
3 87 93 88 
3 89 88 93 
3 89 94 77 
3 77 94 78 
3 95 78 94 
3 78 95 79 
3 79 95 80 
3 90 80 95 
3 92 96 83 
3 83 96 84 
3 97 84 96 
3 84 97 85 
3 85 97 86 
3 87 86 97 
3 87 98 93 
3 94 89 93 
3 95 99 90 
3 90 99 91 
3 100 91 99 
3 91 100 92 
3 96 92 100 
3 97 98 87 
3 98 101 93 
3 93 101 94 
3 99 94 101 
3 94 99 95 
3 101 96 100 
3 96 101 97 
3 97 101 98 
3 99 101 100 
