ply
format ascii 1.0
comment created by MATLAB plywrite
element vertex 101
property double x
property double y
property double z
element face 198
property list uchar char vertex_indices
end_header
3.02736969603094e-08 4.79939564102123e-09 -1.78597443009340e-09 
-1.04196333032473e-02 2.42613826881026e-03 -4.48753288630104e-03 
-6.04371843461352e-03 2.42330421622245e-03 1.06221331715374e-02 
1.16792665047786e-02 2.65246596655933e-03 -1.98833512163628e-03 
-5.56416482122422e-03 -1.29614187709283e-03 -2.70859039170771e-02 
2.33477538270545e-02 -1.44404500045212e-03 -1.57011912821251e-02 
2.72725228299722e-02 -1.39697814325687e-03 1.28292815196324e-03 
-2.68237816885279e-02 -1.38294681695894e-03 -7.04250509309368e-03 
-2.28454647417150e-02 -1.32041124694848e-03 1.54779506211628e-02 
1.08037280991982e-02 -1.39239402363271e-03 2.55373068181945e-02 
-5.71620277078295e-03 -1.03300657984530e-03 2.77336911537072e-02 
9.38419718514749e-03 3.36902226015345e-04 -2.81528486094954e-02 
-2.32454386415489e-02 3.36819085358153e-04 -1.84469013223004e-02 
-2.92409115680585e-02 4.63916544467935e-04 6.00304407660809e-03 
2.43645475035378e-02 3.71126901928809e-04 1.76407126142710e-02 
3.95603917959425e-02 1.30415439184643e-02 -1.33219022522341e-02 
4.11426453186455e-02 1.28119946868228e-02 3.72833627545538e-03 
1.52232876726649e-02 1.30413731317596e-02 -3.88681847755453e-02 
-6.30927622271855e-03 1.31725389826126e-02 -4.13167744312678e-02 
-2.11733316915051e-02 1.17665276733370e-02 -3.46734884680857e-02 
-4.15343898482976e-02 1.32557504192031e-02 2.76652015690187e-03 
-3.59727947653026e-02 1.31623994865073e-02 2.12697600249292e-02 
-2.38002540948109e-02 1.28120296328867e-02 3.37663676906430e-02 
-7.44159438756303e-03 1.25948230723705e-02 4.07207812406094e-02 
1.33227717169094e-02 1.30415780096514e-02 3.95601904103817e-02 
3.00140763517790e-02 2.07035420962613e-02 -3.61779229217496e-02 
-4.06288547944164e-02 2.16463411309940e-02 -2.47017373769095e-02 
-4.63380534261573e-02 2.07035501605529e-02 -7.90374849058179e-03 
3.31616953199100e-02 2.10069616976169e-02 3.32890940528050e-02 
4.25476097871757e-02 2.10072442431054e-02 1.99394138589054e-02 
4.84124461445530e-02 2.38360586200435e-02 1.79319933058062e-04 
4.20161782577576e-02 2.38361599916437e-02 -2.40508247783616e-02 
1.25811233059013e-02 2.39424561223264e-02 -4.64840410055972e-02 
-4.07579298728627e-03 2.39424030322846e-02 -4.79836821099256e-02 
-2.40505463324007e-02 2.38360153929605e-02 -4.20163021578219e-02 
-4.65469649881843e-02 2.39425092408195e-02 1.23463943941314e-02 
-3.72014603992289e-02 2.38359971552982e-02 3.09814354500543e-02 
-2.04619107681775e-02 2.39424005301627e-02 4.35931315694096e-02 
-1.79391071309848e-04 2.38359869859422e-02 4.84124436538795e-02 
2.02422592005375e-02 2.39424644499287e-02 4.36955102111553e-02 
5.11775955478772e-02 4.14507733144781e-02 -9.24007969001850e-03 
5.19988805195466e-02 4.13841416568842e-02 4.46752886411927e-03 
4.72664031457296e-02 4.13844301821714e-02 -2.21302011651094e-02 
3.68462745959219e-02 4.13837480630083e-02 -3.69618834533556e-02 
2.19823979382243e-02 4.13845521442463e-02 -4.73352351906783e-02 
4.46820418951666e-03 4.13836181018983e-02 -5.19988090805182e-02 
-1.35851114437924e-02 4.13827608297236e-02 -5.03912135566110e-02 
-3.00020393512359e-02 4.13834416379865e-02 -4.27049037316624e-02 
-3.99744138882174e-02 4.14499389721907e-02 -3.32647839701345e-02 
-4.73353560256473e-02 4.13844149076431e-02 -2.19820297199429e-02 
-5.19989149375407e-02 4.13839058009455e-02 -4.46743579380071e-03 
-5.03905346112183e-02 4.13822741182932e-02 1.35866865737279e-02 
-4.27049910575009e-02 4.13837941229496e-02 3.00020258192013e-02 
-2.98677381604180e-02 4.13840739325451e-02 4.27990145918110e-02 
-1.75863004146355e-02 4.14502700679966e-02 4.89410072735816e-02 
-4.46707541629388e-03 4.13841004726875e-02 5.19989420316908e-02 
9.23981171285082e-03 4.14481581437403e-02 5.11770553629662e-02 
2.21316875302517e-02 4.13835739051420e-02 4.72654269184739e-02 
3.69623813741604e-02 4.13838219157189e-02 3.68459086974777e-02 
4.73352388017110e-02 4.13838281739590e-02 2.19820783696254e-02 
5.10469436803536e-02 5.77585557571067e-02 -9.22721005639277e-03 
4.21002156196206e-02 5.77102398757493e-02 -2.97681524253866e-02 
2.93803377042317e-02 5.77102126693237e-02 -4.23717178662968e-02 
8.78971768479997e-03 5.77584683517506e-02 -5.11240850812809e-02 
-1.35739047166110e-02 5.77105383631440e-02 -4.97426142089071e-02 
-3.35140264192688e-02 5.77578262745691e-02 -3.95948213319820e-02 
-4.68300679722756e-02 5.77103893387040e-02 -2.15757129016088e-02 
-5.18737969376040e-02 5.77579084135887e-02 2.21847997625215e-04 
-4.66295857917125e-02 5.77105407134827e-02 2.20054662123803e-02 
-3.62914291045424e-02 5.77103972052228e-02 3.66265552237128e-02 
-2.15760383002208e-02 5.77102999531550e-02 4.68299087199652e-02 
2.21995791099501e-04 5.77578730195716e-02 5.18738022285469e-02 
2.20053935337077e-02 5.77105568903916e-02 4.66296644930698e-02 
3.66265235092218e-02 5.77101736755085e-02 3.62915006756031e-02 
4.68298615094088e-02 5.77103593483729e-02 2.15760239503984e-02 
4.98256173187179e-02 6.19790837504549e-02 8.56579008671721e-03 
4.41642881213576e-02 6.87609078744567e-02 -1.24501712607543e-02 
3.49523748288949e-02 6.87960814883898e-02 -3.01269394309325e-02 
1.72063080642180e-02 7.03778234812431e-02 -4.12473267768343e-02 
1.47728296434835e-03 6.91780248376478e-02 -4.56418060515633e-02 
-1.81950348149827e-02 7.01170941578023e-02 -4.15041321659042e-02 
-3.71009179377255e-02 6.89967336979990e-02 -2.74236361269917e-02 
-4.58421936548132e-02 6.89966702106204e-02 -5.19875203308529e-03 
-4.24127482238971e-02 6.79897668493169e-02 2.03642464919607e-02 
-2.70756286428222e-02 6.92284739025786e-02 3.67058087087422e-02 
-7.84711027510232e-03 7.06442667592125e-02 4.38427667784866e-02 
6.76202185715691e-03 6.89462007909049e-02 4.53926548917059e-02 
2.40260202202651e-02 6.84149269643339e-02 3.97283349566075e-02 
3.76331533492722e-02 7.03778181044670e-02 2.41069741428253e-02 
4.26083500048733e-02 7.13792409674239e-02 5.05630882029495e-03 
2.44046816741035e-02 7.43573836475140e-02 -2.66947350372906e-02 
-1.23364038741585e-02 7.40016259695182e-02 -3.42349747616423e-02 
-3.18559009738824e-02 7.45420305748837e-02 -1.28225247565310e-02 
-3.23732214323630e-02 7.39117099552238e-02 1.96379004042987e-02 
1.17867288309565e-02 7.42792962035152e-02 3.38477766210337e-02 
3.21974625293882e-02 7.43750039006848e-02 9.47275979294426e-03 
1.50448982799615e-02 7.32307992672110e-02 6.40906580046002e-03 
3.14126514076155e-03 7.35085773102359e-02 -1.60264932696026e-02 
-7.56726339698871e-03 7.33602392176345e-02 1.36109398870397e-02 
-1.32349147825096e-02 7.27138128279545e-02 -3.31304582638325e-03 
-5.87685635882289e-11 6.70766555290255e-02 4.65878586278966e-09
3 1 3 0 
3 2 1 0 
3 0 3 2 
3 1 4 3 
3 3 5 6 
3 3 4 5 
3 1 7 4 
3 2 7 1 
3 2 8 7 
3 2 9 8 
3 3 9 2 
3 3 6 9 
3 9 10 8 
3 4 11 5 
3 7 12 4 
3 8 13 7 
3 6 14 9 
3 6 15 16 
3 5 15 6 
3 11 17 5 
3 4 18 11 
3 4 19 18 
3 12 19 4 
3 13 20 7 
3 8 21 13 
3 8 22 21 
3 10 22 8 
3 10 23 22 
3 10 24 23 
3 9 24 10 
3 6 16 14 
3 5 25 15 
3 17 25 5 
3 18 17 11 
3 12 26 19 
3 7 27 26 
3 7 26 12 
3 20 27 7 
3 13 21 20 
3 14 28 24 
3 14 24 9 
3 14 29 28 
3 16 29 14 
3 15 30 16 
3 15 31 30 
3 25 31 15 
3 17 32 25 
3 18 33 32 
3 18 32 17 
3 18 34 33 
3 19 34 18 
3 26 34 19 
3 20 35 27 
3 21 35 20 
3 21 36 35 
3 22 36 21 
3 22 37 36 
3 23 37 22 
3 23 38 37 
3 24 38 23 
3 24 39 38 
3 28 39 24 
3 16 30 29 
3 30 40 41 
3 31 42 40 
3 31 40 30 
3 31 43 42 
3 25 43 31 
3 25 44 43 
3 32 44 25 
3 32 45 44 
3 33 45 32 
3 33 46 45 
3 34 46 33 
3 34 47 46 
3 26 48 47 
3 26 47 34 
3 26 49 48 
3 27 50 49 
3 27 49 26 
3 35 51 50 
3 35 50 27 
3 36 52 51 
3 36 51 35 
3 36 53 52 
3 37 53 36 
3 37 54 53 
3 38 55 54 
3 38 54 37 
3 38 56 55 
3 39 57 56 
3 39 56 38 
3 28 58 57 
3 28 57 39 
3 29 59 58 
3 29 58 28 
3 30 41 59 
3 30 59 29 
3 40 60 41 
3 42 60 40 
3 42 61 60 
3 43 61 42 
3 43 62 61 
3 44 62 43 
3 44 63 62 
3 45 63 44 
3 46 64 63 
3 46 63 45 
3 47 65 64 
3 47 64 46 
3 48 65 47 
3 49 66 65 
3 49 65 48 
3 50 67 66 
3 50 66 49 
3 51 67 50 
3 51 68 67 
3 52 68 51 
3 52 69 68 
3 53 69 52 
3 53 70 69 
3 54 70 53 
3 55 71 70 
3 55 70 54 
3 56 71 55 
3 57 72 71 
3 57 71 56 
3 58 73 72 
3 58 72 57 
3 59 74 73 
3 59 73 58 
3 41 75 74 
3 41 74 59 
3 41 60 75 
3 60 76 75 
3 61 77 76 
3 61 76 60 
3 62 77 61 
3 62 78 77 
3 63 78 62 
3 63 79 78 
3 64 80 79 
3 64 79 63 
3 65 80 64 
3 65 81 80 
3 66 81 65 
3 66 82 81 
3 67 82 66 
3 67 83 82 
3 68 83 67 
3 69 83 68 
3 69 84 83 
3 70 84 69 
3 70 85 84 
3 71 85 70 
3 71 86 85 
3 72 87 86 
3 72 86 71 
3 73 87 72 
3 73 88 87 
3 74 88 73 
3 74 75 88 
3 76 89 75 
3 75 89 88 
3 76 90 89 
3 77 90 76 
3 78 90 77 
3 79 91 78 
3 80 91 79 
3 81 92 80 
3 82 92 81 
3 82 93 92 
3 83 93 82 
3 84 93 83 
3 85 93 84 
3 86 94 85 
3 87 94 86 
3 88 94 87 
3 89 90 95 
3 91 90 78 
3 92 91 80 
3 85 94 93 
3 88 95 94 
3 89 95 88 
3 91 92 90 
3 93 94 92 
3 95 97 96 
3 90 97 95 
3 90 92 97 
3 94 98 92 
3 94 96 98 
3 95 96 94 
3 92 99 97 
3 92 98 99 
3 97 100 96 
3 99 100 97 
3 98 100 99 
3 96 100 98 
